# xmcd
#
# Track frame offsets:
#     150
#     23225
#     37417
#     56640
#     74462
#     102252
#     120732
#     135722
#     157207
#     172967
#
# Disc length: 2478
#
# Revision: 13
# Processed by: cddbd v1.5.2PL0 Copyright (c) Steve Scherf et al.
# Submitted via: fre:ac v1.0.17
#
DISCID=9309ac0a
DTITLE=Orlando Pops Orchestra / The Music of Andrew Lloyd Webber
DYEAR=1996
DGENRE=Musical
TTITLE0=Don't Cry For Me Argentina (Evita)
TTITLE1=Sunset Boulevard (Sunset Boulevard)
TTITLE2=Overture (Jesus Christ Superstar)
TTITLE3=Think Of Me (Phantom of the opera)
TTITLE4=The Last Supper (Jesus Christ Superstar)
TTITLE5=Memory (Cats)
TTITLE6=Starlight Sequence (Starlight Express)
TTITLE7=Peron's Latest Flame (Evita)
TTITLE8=King Herod's Song (Jesus Christ Superstar)
TTITLE9=Any Dream Will Do (Joseph and the Amazing Technicolor Dreamcoat)
EXTD=
EXTT0=
EXTT1=
EXTT2=
EXTT3=
EXTT4=
EXTT5=
EXTT6=
EXTT7=
EXTT8=
EXTT9=
PLAYORDER=
.
